<?xml version="1.0" standalone="no"?>
<!DOCTYPE svg PUBLIC "-//W3C//DTD SVG 20010904//EN"
 "http://www.w3.org/TR/2001/REC-SVG-20010904/DTD/svg10.dtd">
<svg version="1.0" xmlns="http://www.w3.org/2000/svg"
 width="640.000000pt" height="640.000000pt" viewBox="0 0 640.000000 640.000000"
 preserveAspectRatio="xMidYMid meet">
<metadata>
Created by potrace 1.14, written by Peter Selinger 2001-2017
</metadata>
<g transform="translate(0.000000,640.000000) scale(0.100000,-0.100000)"
fill="#000000" stroke="none">
<path d="M3507 5002 c-4 -6 -33 -107 -52 -182 -2 -8 -4 -15 -5 -15 -1 0 -3
-11 -6 -24 -2 -13 -12 -49 -20 -79 -9 -30 -17 -60 -19 -66 -1 -6 -5 -18 -8
-26 -5 -12 -27 -96 -53 -200 -2 -8 -28 -105 -59 -215 -30 -110 -57 -209 -60
-220 -4 -17 -46 -171 -171 -625 -9 -30 -17 -62 -19 -70 -3 -8 -16 -58 -30
-110 -14 -52 -27 -99 -28 -105 -2 -5 -6 -16 -10 -22 -5 -7 -6 -13 -4 -13 3 0
-6 -39 -19 -87 -14 -49 -27 -95 -29 -103 -2 -8 -22 -82 -45 -165 -23 -82 -49
-181 -59 -220 -11 -38 -33 -122 -51 -185 -18 -63 -33 -122 -35 -130 -2 -8 -11
-41 -20 -74 -9 -32 -19 -66 -20 -75 -2 -9 -4 -16 -5 -16 -1 0 -3 -7 -5 -15 -4
-13 -49 -181 -60 -220 -48 -176 -65 -236 -65 -241 0 -9 43 -26 115 -44 83 -22
83 -22 145 -39 30 -9 62 -16 71 -16 12 0 30 52 79 233 34 127 74 273 87 322
14 50 26 95 27 100 5 19 27 100 41 150 29 99 87 310 91 329 2 10 14 58 28 105
13 47 27 100 31 116 5 17 9 35 11 40 1 6 10 37 19 70 9 33 18 67 20 75 2 8 20
74 40 145 20 72 38 137 40 146 2 9 13 47 24 85 11 38 22 78 24 89 2 11 9 40
16 65 8 25 14 50 16 55 1 6 5 17 8 25 3 8 10 35 16 60 17 68 16 62 71 260 28
102 53 192 55 200 1 8 10 42 19 75 10 33 19 67 21 75 2 8 4 15 5 15 2 0 5 12
13 50 3 11 10 40 17 65 7 25 13 50 15 55 1 6 5 17 8 25 5 13 14 49 22 85 2 6
15 53 29 105 15 52 29 104 31 115 3 11 14 51 25 90 11 38 20 75 20 81 0 6 -26
17 -57 24 -75 18 -73 17 -75 20 -2 1 -10 3 -18 5 -46 11 -175 47 -181 51 -4 2
-10 1 -12 -4z"/>
<path d="M958 3999 l-798 -799 795 -795 c437 -437 799 -795 805 -795 6 0 116
106 245 235 l235 235 -560 560 -560 560 555 555 c305 305 555 559 555 565 0 9
-466 481 -473 479 -1 0 -361 -360 -799 -800z"/>
<path d="M4398 4559 c-126 -126 -228 -233 -228 -239 0 -6 250 -260 555 -565
l555 -555 -560 -560 -560 -560 235 -235 c129 -129 239 -235 245 -235 6 0 368
358 805 795 l795 795 -795 795 c-437 437 -801 795 -807 794 -7 0 -115 -104
-240 -230z"/>
</g>
</svg>
